<svg fill="#ffffff" xmlns="http://www.w3.org/2000/svg" viewBox="0 0 24 30" x="0px" y="0px"><g><path d="M19,11.75H15A2.75,2.75,0,0,1,12.25,9V5A2.75,2.75,0,0,1,15,2.25h4A2.75,2.75,0,0,1,21.75,5V9A2.75,2.75,0,0,1,19,11.75Zm-4-8A1.25,1.25,0,0,0,13.75,5V9A1.25,1.25,0,0,0,15,10.25h4A1.25,1.25,0,0,0,20.25,9V5A1.25,1.25,0,0,0,19,3.75Z"/><path d="M8,11.75H5A2.75,2.75,0,0,1,2.25,9V6A2.75,2.75,0,0,1,5,3.25H8A2.75,2.75,0,0,1,10.75,6V9A2.75,2.75,0,0,1,8,11.75Zm-3-7A1.25,1.25,0,0,0,3.75,6V9A1.25,1.25,0,0,0,5,10.25H8A1.25,1.25,0,0,0,9.25,9V6A1.25,1.25,0,0,0,8,4.75Z"/><path d="M18,21.75H15A2.75,2.75,0,0,1,12.25,19V16A2.75,2.75,0,0,1,15,13.25h3A2.75,2.75,0,0,1,20.75,16v3A2.75,2.75,0,0,1,18,21.75Zm-3-7A1.25,1.25,0,0,0,13.75,16v3A1.25,1.25,0,0,0,15,20.25h3A1.25,1.25,0,0,0,19.25,19V16A1.25,1.25,0,0,0,18,14.75Z"/><path d="M8,21.75H5A2.75,2.75,0,0,1,2.25,19V16A2.75,2.75,0,0,1,5,13.25H8A2.75,2.75,0,0,1,10.75,16v3A2.75,2.75,0,0,1,8,21.75Zm-3-7A1.25,1.25,0,0,0,3.75,16v3A1.25,1.25,0,0,0,5,20.25H8A1.25,1.25,0,0,0,9.25,19V16A1.25,1.25,0,0,0,8,14.75Z"/></g></svg>