<svg aria-hidden="true" data-testid="peacock-wob-logo" fill="none" viewBox="0 0 114 35" xmlns="http://www.w3.org/2000/svg" xmlns:xlink="http://www.w3.org/1999/xlink"><use fill="#069de0" href="#pwob_a"></use><use fill="#6e55dc" href="#pwob_a" y="-5.747"></use><use fill="#05ac3f" href="#pwob_a" y="5.745"></use><use fill="#ef1541" href="#pwob_a" y="-11.492"></use><use fill="#ff7112" href="#pwob_a" y="-17.239"></use><path d="M111.832 0a2.1 2.1 0 0 0-2.099 2.098 2.1 2.1 0 0 0 2.099 2.098 2.1 2.1 0 0 0 2.098-2.098A2.1 2.1 0 0 0 111.832 0z" fill="#fccc12"></path><path d="M7.292 12.353c-3.194 0-5.658 2.505-5.658 5.679L1.641 35h1.828V18.074c0-2.327 1.748-4.018 3.848-4.018s3.848 1.691 3.848 4.018c0 1.471-.718 3.079-2.545 3.795l-5.151 2.019-.001 1.707.09.096 5.471-2.274c1.644-.717 2.196-1.255 2.201-1.261a5.687 5.687 0 0 0 1.769-4.124 5.678 5.678 0 0 0-5.707-5.679z" fill="url(#pwob_b)"></path><use fill="url(#pwob_d)" href="#pwob_c"></use><use fill="url(#pwob_e)" href="#pwob_c"></use><path d="M19.377 19.612h10.669l-.016-.033-1.683-1.631-9.296.015a4.4 4.4 0 0 0 .326 1.649z" fill="url(#pwob_f)"></path><path d="m19.094 18.023 9.218.005-1.76-1.584h-7.147a4.2 4.2 0 0 0-.311 1.58z" fill="#fff"></path><path d="M23.045 22.046a3.75 3.75 0 0 1-2.46-.889v.001l-.021-.019a3.87 3.87 0 0 1-1.073-1.526 4.248 4.248 0 0 1-.3-1.583 4.21 4.21 0 0 1 .305-1.586l.056-.126.024-.055a3.92 3.92 0 0 1 .934-1.284l.076-.069v.003a3.746 3.746 0 0 1 2.46-.903c1.658 0 2.903.997 3.426 2.433l1.866 1.609c.047-1.584-.525-3.067-1.552-4.12-.986-1.011-2.356-1.567-3.814-1.567-3.11 0-5.675 2.552-5.675 5.663s2.554 5.667 5.665 5.667c1.82 0 3.517-.885 4.57-2.326l-1.302-.903c-.334.552-1.4 1.582-3.183 1.582z" fill="url(#pwob_g)"></path><path d="M22.97 23.685c-3.042 0-5.655-2.532-5.655-5.658s2.626-5.664 5.655-5.658c1.413.002 2.814.554 3.806 1.571 1.037 1.063 1.572 2.515 1.534 4.088l1.735 1.585a7.83 7.83 0 0 0 .167-1.585c0-4.035-3.133-7.317-7.167-7.317a7.33 7.33 0 0 0-7.317 7.317 7.33 7.33 0 0 0 7.317 7.317c2.4 0 4.673-1.162 5.968-2.953l-1.483-1.025c-1.079 1.443-2.752 2.318-4.559 2.318z" fill="url(#pwob_h)"></path><path d="M42.621 12.458v-1.321h1.692v6.077l-.014-.127c-.169-1.526-.892-3.429-1.678-4.629zm.705 9.918c-.22.465-.461.849-.705 1.221v1.321h1.692V18.76l-.028.393c-.109.982-.441 2.133-.959 3.224z" fill="#eeefef"></path><use fill="url(#pwob_j)" href="#pwob_i"></use><use fill="url(#pwob_k)" fill-opacity=".2" href="#pwob_i"></use><path d="M38.791 12.32c-3.076 0-5.639 2.569-5.639 5.72s2.393 5.74 5.639 5.74c3.076 0 5.58-2.578 5.58-5.73s-2.502-5.731-5.58-5.731zm.029 9.625c-2.196 0-3.865-1.746-3.865-3.963s1.709-3.966 3.865-3.963c2.177.002 3.787 1.81 3.8 3.993.001 2.215-1.605 3.932-3.8 3.932z" fill="url(#pwob_l)"></path><path d="M46.091 11.137h-1.779v13.781h1.779V11.137z" fill="url(#pwob_m)"></path><use fill="url(#pwob_o)" href="#pwob_n"></use><use fill="url(#pwob_p)" href="#pwob_n"></use><use fill="url(#pwob_r)" href="#pwob_q"></use><path d="M68.524 10.704a7.33 7.33 0 0 0-7.317 7.317 7.33 7.33 0 0 0 7.317 7.317 7.33 7.33 0 0 0 7.317-7.317 7.33 7.33 0 0 0-7.317-7.317zm0 12.861c-3.005 0-5.436-2.468-5.436-5.518s2.43-5.517 5.436-5.517 5.437 2.467 5.437 5.517-2.432 5.518-5.437 5.518z" fill="url(#pwob_s)"></path><path d="M68.524 12.24c-3.147 0-5.72 2.539-5.72 5.808 0 3.31 2.574 5.809 5.72 5.809 3.284 0 5.723-2.613 5.723-5.809 0-3.256-2.576-5.808-5.723-5.808zm0 9.801c-2.22 0-3.848-1.771-3.848-4.018s1.667-4.018 3.848-4.018c2.22 0 3.848 1.771 3.848 4.018s-1.628 4.018-3.848 4.018z" fill="url(#pwob_t)"></path><use fill="url(#pwob_u)" x="29.626" href="#pwob_n"></use><use fill="url(#pwob_r)" x="29.626" href="#pwob_q"></use><path d="M95.251 3.631h-1.802v21.286h1.802V3.631z" fill="#fff"></path><path d="m98.367 17.731-.031-.039-1.187 1.248.027.039-.003.003 4.095 5.935h2.031l-4.932-7.186z" fill="url(#pwob_v)"></path><path d="M103.248 24.918h2.221l-5.339-7.387-1.572-.009h-.025l-.203.218.009.015 4.909 7.164zm-9.738-4.39.014.005 8.802-9.396h-2.209l-4.864 5.253-1.742 4.106v.033z" fill="#fff"></path><path d="M104.601 11.137h-2.339l-8.752 9.377v.017l1.742.472 1.859-1.95 1.458-1.532 6.032-6.384z" fill="url(#pwob_w)"></path><path d="M93.51 3.631h-1.728v21.286h1.728V3.631z" fill="url(#pwob_x)"></path><defs><linearGradient id="pwob_b" x1=".273" x2="9.021" href="#pwob_y" y1="23.002" y2="15.036"><stop stop-color="#fff"></stop><stop offset=".498" stop-color="#fff"></stop><stop offset="1" stop-color="#d7d9d9"></stop></linearGradient><linearGradient id="pwob_d" x1="0" x2="3.858" href="#pwob_y" y1="19.575" y2="27.689"><stop stop-color="#fff"></stop><stop offset="1" stop-color="#c7c7c7"></stop></linearGradient><linearGradient id="pwob_e" x1="1.192" x2="3.631" href="#pwob_y" y1="24.398" y2="23.377"><stop stop-color="#f3f4f4"></stop><stop offset=".966" stop-color="#f1f2f2" stop-opacity="0"></stop></linearGradient><linearGradient id="pwob_f" x1="29.401" x2="19.926" href="#pwob_y" y1="19.108" y2="18.767"><stop stop-color="#d1d3d4"></stop><stop offset="1" stop-color="#fff"></stop></linearGradient><linearGradient id="pwob_g" x1="22.809" x2="23.66" href="#pwob_y" y1="24.228" y2="12.369"><stop offset=".078" stop-color="#fff"></stop><stop offset=".495" stop-color="#fff"></stop><stop offset="1" stop-color="#d1d3d4"></stop></linearGradient><linearGradient id="pwob_h" x1="17.872" x2="26.837" href="#pwob_y" y1="25.306" y2="8.681"><stop stop-color="#d1d3d4"></stop><stop offset=".181" stop-color="#d1d3d4"></stop><stop offset=".587" stop-color="#fff"></stop></linearGradient><linearGradient id="pwob_j" x1="35.859" x2="41.581" href="#pwob_y" y1="25.93" y2="10.787"><stop offset=".103" stop-color="#d1d3d4"></stop><stop offset=".714" stop-color="#fff"></stop></linearGradient><linearGradient id="pwob_k" x1="45.221" x2="40.171" href="#pwob_y" y1="15.887" y2="18.497"><stop stop-opacity=".81"></stop><stop offset="1" stop-opacity="0"></stop></linearGradient><linearGradient id="pwob_l" x1="36.994" x2="39.679" href="#pwob_y" y1="24.568" y2="9.592"><stop offset=".058" stop-color="#fff"></stop><stop offset=".54" stop-color="#f5f6f6"></stop><stop offset=".759" stop-color="#d1d3d4"></stop><stop offset=".894" stop-color="#eaeaea"></stop></linearGradient><linearGradient id="pwob_m" x1="46.091" x2="44.275" href="#pwob_y" y1="17.122" y2="17.122"><stop stop-color="#f6f7f7"></stop><stop offset="1" stop-color="#fff"></stop></linearGradient><linearGradient id="pwob_o" x1="62.072" x2="59.008" href="#pwob_y" y1="22.298" y2="14.298"><stop stop-color="#fff"></stop><stop offset=".294" stop-color="#fff"></stop><stop offset=".659" stop-color="#eee"></stop><stop offset=".907" stop-color="#d1d3d4"></stop></linearGradient><linearGradient id="pwob_p" x1="49.873" x2="56.455" href="#pwob_y" y1="18.043" y2="19.632"><stop stop-color="#fff" stop-opacity=".59"></stop><stop offset="1" stop-color="#fff" stop-opacity="0"></stop></linearGradient><linearGradient id="pwob_r" x1="54.639" x2="53.593" href="#pwob_y" y1="26.213" y2="8.694"><stop stop-color="#d1d3d4"></stop><stop offset=".181" stop-color="#d1d3d4"></stop><stop offset=".329" stop-color="#e9eaea"></stop><stop offset=".642" stop-color="#fff"></stop></linearGradient><linearGradient id="pwob_s" x1="66.101" x2="73.626" href="#pwob_y" y1="27.121" y2="11.453"><stop offset=".054" stop-color="#d1d3d4"></stop><stop offset=".662" stop-color="#fcfcfc"></stop><stop offset=".936" stop-color="#fff"></stop></linearGradient><linearGradient id="pwob_t" x1="66.499" x2="70.281" href="#pwob_y" y1="24.941" y2="12.697"><stop offset=".054" stop-color="#fff"></stop><stop offset=".206" stop-color="#fff"></stop><stop offset=".907" stop-color="#d3d5d6"></stop></linearGradient><linearGradient id="pwob_u" x1="56.852" x2="61.051" href="#pwob_y" y1="26.043" y2="12.256"><stop stop-color="#fff"></stop><stop offset=".294" stop-color="#fff"></stop><stop offset=".659" stop-color="#eee"></stop><stop offset=".907" stop-color="#d1d3d4"></stop></linearGradient><linearGradient id="pwob_v" x1="98.272" x2="100.057" href="#pwob_y" y1="18.303" y2="24.81"><stop stop-color="#fff"></stop><stop offset=".392" stop-color="#f1f2f2"></stop><stop offset=".73" stop-color="#e6e7e7"></stop><stop offset="1" stop-color="#d3d5d6"></stop></linearGradient><linearGradient id="pwob_w" x1="103.039" x2="93.96" href="#pwob_y" y1="11.097" y2="20.629"><stop stop-color="#eeefef"></stop><stop offset=".392" stop-color="#f1f2f2"></stop><stop offset=".73" stop-color="#e8e9ea"></stop><stop offset="1" stop-color="#e6e7e8"></stop></linearGradient><linearGradient id="pwob_x" x1="92.598" x2="92.598" href="#pwob_y" y1="4.061" y2="24.601"><stop stop-color="#f1f2f2"></stop><stop offset=".392" stop-color="#f1f2f2"></stop><stop offset=".73" stop-color="#e6e7e7"></stop><stop offset="1" stop-color="#d3d5d6"></stop></linearGradient><linearGradient gradientUnits="userSpaceOnUse" id="pwob_y"></linearGradient><path d="M111.832 22.984a2.1 2.1 0 0 0-2.099 2.098 2.1 2.1 0 0 0 2.099 2.098 2.1 2.1 0 0 0 2.098-2.098 2.1 2.1 0 0 0-2.098-2.098z" id="pwob_a"></path><path d="M7.317 10.757A7.33 7.33 0 0 0 0 18.074V35h1.659V18.034c0-3.126 2.532-5.655 5.658-5.655s5.659 2.527 5.659 5.655a5.6 5.6 0 0 1-1.766 4.1c-.005.005-.544.538-2.194 1.258l-5.464 2.292 1.184 1.259 5.096-1.996c2.914-1.136 4.802-3.744 4.802-6.873a7.33 7.33 0 0 0-7.318-7.317z" id="pwob_c"></path><path d="M44.313 18.48v-.429l-.014-.499-.049.287.02.784c-.284 2.858-2.747 5.085-5.527 5.085-3.08 0-5.571-2.531-5.571-5.657 0-3.056 2.491-5.657 5.571-5.657 2.836 0 5.244 2.226 5.527 5.085l.042.572v-.808c-.014-1.336-.698-3.317-1.654-4.727l-.038-.058c-1.177-1.223-2.733-1.748-4.373-1.748-3.395 0-6.852 3.082-6.852 7.317s3.456 7.317 6.852 7.317c1.632 0 3.178-.52 4.353-1.727.835-1.14 1.76-3.426 1.712-5.137z" id="pwob_i"></path><path d="M54.746 14.004a3.74 3.74 0 0 1 3.378 2.044l1.384-1.062c-1.02-1.677-2.805-2.718-4.75-2.718-3.085 0-5.636 2.611-5.636 5.791s2.551 5.815 5.636 5.815c1.96 0 3.771-1.08 4.787-2.786l-1.42-1.089a3.745 3.745 0 0 1-3.378 2.044c-2.22 0-3.848-1.771-3.848-4.018s1.667-4.019 3.847-4.019z" id="pwob_n"></path><path d="M54.757 23.839c-3.03 0-5.611-2.586-5.611-5.782s2.59-5.778 5.611-5.778c1.93 0 3.724 1.021 4.75 2.705l1.327-1.017a7.316 7.316 0 0 0-6.089-3.264 7.33 7.33 0 0 0-7.317 7.317 7.33 7.33 0 0 0 7.317 7.317 7.316 7.316 0 0 0 6.089-3.264l-1.291-.989c-1.02 1.713-2.887 2.754-4.785 2.754z" id="pwob_q"></path></defs></svg>